<svg width="53" height="52" viewBox="0 0 53 52" fill="none" xmlns="http://www.w3.org/2000/svg">
<path d="M30.9963 39.7659C26.7914 38.204 22.4664 37.9638 18.5017 39.045C15.7385 39.7659 13.0954 41.2076 10.6926 43.0097L9.01058 44.4514L8.53003 44.9319L9.61129 45.893C9.73143 45.893 9.73144 46.0132 9.85158 46.1333C10.0919 46.3736 10.3322 46.4938 10.6926 46.734L11.4134 47.2146L12.1342 46.6139C12.2544 46.4938 12.4947 46.2535 12.735 46.1333C14.8975 44.3312 17.3003 43.1298 19.8232 42.5291C23.067 41.6881 26.5511 41.8083 30.0352 43.1298C32.9186 44.2111 38.8055 45.5326 45.8938 42.5291L46.1341 42.409L46.4945 42.0486C46.4945 41.9284 46.6146 41.9284 46.7348 41.8083C47.3355 41.0874 47.9362 40.3666 48.4167 39.5256L50.8195 35.8012L46.975 37.9638C41.3284 41.0874 36.1624 41.6881 30.9963 39.7659Z" fill="#F4F4F4"/>
<path d="M14.5369 26.7911C17.7807 25.9501 21.2648 26.0702 24.7489 27.3918C28.5933 28.8335 38.4449 30.8759 49.4978 20.9042L51.2999 19.1021L51.4201 18.9819L51.9006 18.5014L51.6603 17.9007C51.5402 17.4201 51.2999 16.8194 51.0596 16.2187L50.4589 14.5367L49.2575 15.7381C49.1374 15.9784 48.8971 16.0985 48.6568 16.3388C43.3706 21.7451 35.2011 27.2716 25.8301 23.9077C21.6252 22.3459 17.3001 22.1056 13.3355 23.1868C9.491 24.2681 6.12705 26.3105 3.0034 29.1939V29.0737L1.20129 30.996C1.20129 31.1161 1.08117 31.1161 0.96103 31.2363L0.600586 31.5967L0.720734 32.0772C0.840874 32.6779 1.08115 33.2787 1.20129 33.8794L1.92214 35.8016L3.12355 34.2398C3.24369 33.9995 3.48396 33.8794 3.6041 33.6391C6.12705 31.3564 9.61114 28.1126 14.5369 26.7911Z" fill="#F4F4F4"/>
<path d="M2.8834 24.6285C5.64664 21.7452 8.77027 19.943 12.1342 18.9819C15.378 18.1409 18.8621 18.2611 22.3462 19.5826C33.1588 23.5473 42.5298 17.0597 46.6146 13.5756L48.1764 12.0138L48.7771 11.5332L48.2965 10.8124C47.9361 10.4519 47.6958 9.97137 47.3354 9.49081L46.6146 8.52966L45.7736 9.37066C45.6534 9.4908 45.4132 9.73108 45.293 9.85122C40.2471 14.6568 32.438 19.5826 23.5476 16.2187C19.3426 14.6569 15.0176 14.4166 11.0529 15.4978C8.53 16.2187 6.12718 17.4201 3.72437 18.9819L1.20141 21.0243C0.961125 21.2646 0.840984 21.3847 0.600703 21.625L0.360444 21.8653V22.2257C0.240303 23.0667 0.240289 23.9077 0.120148 24.6285L0 27.632L2.0424 25.4695C2.28269 25.2292 2.52298 24.8688 2.8834 24.6285Z" fill="#F4F4F4"/>
<path d="M34.4801 47.9357L34.2398 48.6565L34.4801 47.9357C34.1197 47.8155 33.8794 47.6954 33.519 47.5752C29.3141 46.0134 24.989 45.7732 21.0244 46.8544C20.1834 47.0947 19.3424 47.335 18.5014 47.6954L15.618 49.0169L14.8972 49.3774L17.3 50.2184C18.0209 50.4586 18.7417 50.6989 19.4625 50.9392L19.823 51.0594L20.1834 50.9392C20.5438 50.8191 20.9042 50.5788 21.2647 50.5788C21.5049 50.5788 21.7452 50.4586 21.9855 50.3385C24.8689 49.6177 27.9925 49.6176 31.3565 50.6989C31.7169 50.819 31.9572 50.9392 32.3176 51.0594L32.9183 51.2996L33.2787 51.1795C34.1197 50.9392 35.0808 50.6989 35.8017 50.3385L39.1656 49.1371L35.6815 48.2961C35.3211 48.176 34.8405 48.0558 34.4801 47.9357Z" fill="#F4F4F4"/>
<path d="M52.8618 23.0668L51.0597 24.8689C50.8194 25.1092 50.5792 25.3495 50.3389 25.5898C45.4131 30.2752 37.4838 35.3211 28.5934 31.9572C24.3885 30.3954 20.0634 30.1551 16.0988 31.2364C12.3744 32.3176 9.01048 34.2399 6.00697 37.1233L4.44515 38.8052L3.9646 39.4059L4.44515 40.1268C4.80558 40.6073 5.04587 40.9678 5.28615 41.4483L6.00697 42.5296L6.84797 41.4483C6.96811 41.3282 7.20838 41.0879 7.32852 40.9677C10.2119 37.8441 13.3356 35.9218 16.9398 34.9607C20.1836 34.1197 23.6676 34.2399 27.1517 35.5614C30.1552 36.6427 33.2789 37.0031 36.4026 36.6427C41.929 36.042 47.4555 32.9184 51.5403 29.4343C51.7806 29.194 52.0208 29.0739 52.2611 28.8336L52.6215 28.4731V28.1127C52.6215 27.3919 52.7417 26.5509 52.7417 25.8301L52.8618 23.0668Z" fill="#F4F4F4"/>
<path d="M7.20827 12.0135L6.84786 11.2927L7.20827 12.0135C7.92911 11.6531 8.77012 11.4128 9.49097 11.1725C12.7348 10.3316 16.2188 10.4517 19.7029 11.7732C21.9856 12.6142 24.2683 12.9747 26.7912 12.9747C31.8371 12.9747 36.883 11.1725 41.5685 7.68847L43.3706 6.24677L43.9713 5.76622L42.89 4.92522C42.5296 4.56479 42.049 4.20439 41.5685 3.96411L40.8476 3.48355L40.2469 3.96411C40.0066 4.08425 39.8865 4.32452 39.6462 4.44466C33.2788 9.25029 26.9114 10.5718 20.9043 8.28918C16.5793 6.72735 12.2542 6.36693 7.92912 7.68847C7.5687 7.80861 7.20827 7.92874 6.72771 8.04888L6.48745 8.16903L6.12701 8.52943C6.12701 8.64957 6.00689 8.64959 5.88675 8.76973C5.40619 9.49057 4.80546 10.0913 4.3249 10.8121L2.04224 14.2962L5.7666 12.3739C6.3673 12.3739 6.84785 12.1337 7.20827 12.0135Z" fill="#F4F4F4"/>
<path d="M17.0598 3.84405L17.4203 3.9642C18.9821 4.5649 21.3849 5.1656 24.3884 5.1656C27.5121 5.1656 30.5156 4.44475 33.5191 3.24335L37.2435 1.44124L34.7205 0.600276C33.9997 0.359995 33.2788 0.119713 32.4378 -0.000427246H32.0774L31.717 0.119684C31.3566 0.239825 30.9961 0.480135 30.6357 0.600276C27.0315 1.92182 23.4273 2.1621 19.9432 1.20098C19.5828 1.08084 19.2224 0.960675 18.862 0.840535L18.5015 0.720387L18.1411 0.840535C17.4203 1.08082 16.6994 1.32111 15.9786 1.68153L13.2153 2.88294L16.0987 3.7239C16.339 3.60376 16.6994 3.72391 17.0598 3.84405Z" fill="#F4F4F4"/>
</svg>
